<svg xmlns="http://www.w3.org/2000/svg" xmlns:xlink="http://www.w3.org/1999/xlink" width="262.5" viewBox="0 0 262.5 112.5" height="112.5" version="1.0"><defs><clipPath id="b"><path d="M 0.332031 39 L 74 39 L 74 112.003906 L 0.332031 112.003906 Z M 0.332031 39"/></clipPath><clipPath id="e"><path d="M 0.332031 17 L 56 17 L 56 73.003906 L 0.332031 73.003906 Z M 0.332031 17"/></clipPath><clipPath id="f"><path d="M -50.09375 52.558594 L 21.050781 0.296875 L 73.3125 71.441406 L 2.167969 123.703125 Z M -50.09375 52.558594"/></clipPath><clipPath id="g"><path d="M -50.09375 52.558594 L 21.050781 0.296875 L 73.3125 71.441406 L 2.167969 123.703125 Z M -50.09375 52.558594"/></clipPath><clipPath id="h"><path d="M -50.09375 52.558594 L 21.050781 0.296875 L 73.3125 71.441406 L 2.167969 123.703125 Z M -50.09375 52.558594"/></clipPath><clipPath id="i"><path d="M 0.332031 36 L 56 36 L 56 73.003906 L 0.332031 73.003906 Z M 0.332031 36"/></clipPath><clipPath id="j"><path d="M -50.09375 52.558594 L 21.050781 0.296875 L 73.3125 71.441406 L 2.167969 123.703125 Z M -50.09375 52.558594"/></clipPath><clipPath id="k"><path d="M -50.09375 52.558594 L 21.050781 0.296875 L 73.3125 71.441406 L 2.167969 123.703125 Z M -50.09375 52.558594"/></clipPath><clipPath id="l"><path d="M -50.09375 52.558594 L 21.050781 0.296875 L 73.3125 71.441406 L 2.167969 123.703125 Z M -50.09375 52.558594"/></clipPath><clipPath id="m"><path d="M 0.332031 32 L 50 32 L 50 73.003906 L 0.332031 73.003906 Z M 0.332031 32"/></clipPath><clipPath id="n"><path d="M -50.09375 52.558594 L 21.050781 0.296875 L 73.3125 71.441406 L 2.167969 123.703125 Z M -50.09375 52.558594"/></clipPath><clipPath id="o"><path d="M -50.09375 52.558594 L 21.050781 0.296875 L 73.3125 71.441406 L 2.167969 123.703125 Z M -50.09375 52.558594"/></clipPath><clipPath id="p"><path d="M -50.09375 52.558594 L 21.050781 0.296875 L 73.3125 71.441406 L 2.167969 123.703125 Z M -50.09375 52.558594"/></clipPath><clipPath id="q"><path d="M 3 54 L 22 54 L 22 73 L 3 73 Z M 3 54"/></clipPath><clipPath id="r"><path d="M -50.09375 52.558594 L 21.050781 0.296875 L 73.3125 71.441406 L 2.167969 123.703125 Z M -50.09375 52.558594"/></clipPath><clipPath id="s"><path d="M -50.09375 52.558594 L 21.050781 0.296875 L 73.3125 71.441406 L 2.167969 123.703125 Z M -50.09375 52.558594"/></clipPath><clipPath id="t"><path d="M -50.09375 52.558594 L 21.050781 0.296875 L 73.3125 71.441406 L 2.167969 123.703125 Z M -50.09375 52.558594"/></clipPath><clipPath id="u"><path d="M 0.332031 46 L 30 46 L 30 73.003906 L 0.332031 73.003906 Z M 0.332031 46"/></clipPath><clipPath id="v"><path d="M -50.09375 52.558594 L 21.050781 0.296875 L 73.3125 71.441406 L 2.167969 123.703125 Z M -50.09375 52.558594"/></clipPath><clipPath id="w"><path d="M -50.09375 52.558594 L 21.050781 0.296875 L 73.3125 71.441406 L 2.167969 123.703125 Z M -50.09375 52.558594"/></clipPath><clipPath id="x"><path d="M -50.09375 52.558594 L 21.050781 0.296875 L 73.3125 71.441406 L 2.167969 123.703125 Z M -50.09375 52.558594"/></clipPath><clipPath id="y"><path d="M 0.332031 17 L 56 17 L 56 73.003906 L 0.332031 73.003906 Z M 0.332031 17"/></clipPath><clipPath id="z"><path d="M -50.09375 52.558594 L 21.050781 0.296875 L 73.3125 71.441406 L 2.167969 123.703125 Z M -50.09375 52.558594"/></clipPath><clipPath id="A"><path d="M -50.09375 52.558594 L 21.050781 0.296875 L 73.3125 71.441406 L 2.167969 123.703125 Z M -50.09375 52.558594"/></clipPath><clipPath id="B"><path d="M -50.09375 52.558594 L 21.050781 0.296875 L 73.3125 71.441406 L 2.167969 123.703125 Z M -50.09375 52.558594"/></clipPath><clipPath id="C"><path d="M 0.332031 25 L 40 25 L 40 73.003906 L 0.332031 73.003906 Z M 0.332031 25"/></clipPath><clipPath id="D"><path d="M -50.09375 52.558594 L 21.050781 0.296875 L 73.3125 71.441406 L 2.167969 123.703125 Z M -50.09375 52.558594"/></clipPath><clipPath id="E"><path d="M -50.09375 52.558594 L 21.050781 0.296875 L 73.3125 71.441406 L 2.167969 123.703125 Z M -50.09375 52.558594"/></clipPath><clipPath id="F"><path d="M -50.09375 52.558594 L 21.050781 0.296875 L 73.3125 71.441406 L 2.167969 123.703125 Z M -50.09375 52.558594"/></clipPath><clipPath id="d"><path d="M0 0H74V74H0z"/></clipPath><filter x="0%" y="0%" width="100%" xmlns:xlink="http://www.w3.org/1999/xlink" xlink:type="simple" xlink:actuate="onLoad" height="100%" id="a" xlink:show="other"><feColorMatrix values="0 0 0 0 1 0 0 0 0 1 0 0 0 0 1 0 0 0 1 0" color-interpolation-filters="sRGB"/></filter><mask id="c"><g filter="url(#a)"><path fill-opacity=".898" d="M-26.25 -11.25H288.75V123.75H-26.25z"/></g></mask></defs><g clip-path="url(#b)"><g mask="url(#c)"><g><g clip-path="url(#d)" transform="translate(0 39)"><g clip-path="url(#e)"><g clip-path="url(#f)"><g clip-path="url(#g)"><g clip-path="url(#h)"><path fill="#ED5564" d="M 34.214844 24.078125 C 29.308594 21.160156 23.953125 19.238281 18.285156 18.371094 C 12.621094 17.503906 6.929688 17.734375 1.378906 19.054688 C -4.367188 20.417969 -9.71875 22.902344 -14.523438 26.429688 C -19.324219 29.957031 -23.289062 34.320312 -26.3125 39.398438 C -29.234375 44.300781 -31.15625 49.660156 -32.023438 55.324219 C -32.886719 60.988281 -32.660156 66.679688 -31.339844 72.230469 C -29.972656 77.980469 -27.492188 83.328125 -23.964844 88.132812 C -20.4375 92.933594 -16.070312 96.902344 -10.996094 99.925781 C -6.09375 102.84375 -0.734375 104.765625 4.929688 105.628906 C 10.597656 106.5 16.285156 106.269531 21.839844 104.949219 C 27.585938 103.578125 32.9375 101.101562 37.738281 97.574219 C 42.542969 94.046875 46.507812 89.679688 49.53125 84.605469 C 52.449219 79.703125 54.371094 74.34375 55.238281 68.675781 C 56.105469 63.011719 55.875 57.320312 54.554688 51.773438 C 53.1875 46.023438 50.707031 40.671875 47.179688 35.871094 C 43.652344 31.070312 39.289062 27.101562 34.214844 24.078125 Z M 34.214844 24.078125"/></g></g></g></g><g clip-path="url(#i)"><g clip-path="url(#j)"><g clip-path="url(#k)"><g clip-path="url(#l)"><path fill="#E6E9ED" d="M -23.214844 89.121094 C -19.828125 93.480469 -15.71875 97.113281 -10.996094 99.925781 C -6.09375 102.84375 -0.734375 104.765625 4.929688 105.628906 C 10.597656 106.5 16.285156 106.269531 21.839844 104.949219 C 27.585938 103.578125 32.9375 101.101562 37.738281 97.574219 C 42.542969 94.046875 46.507812 89.679688 49.53125 84.605469 C 52.449219 79.703125 54.371094 74.34375 55.238281 68.675781 C 56.105469 63.011719 55.875 57.320312 54.554688 51.773438 C 53.285156 46.421875 51.046875 41.417969 47.902344 36.878906 Z M -23.214844 89.121094"/></g></g></g></g><g clip-path="url(#m)"><g clip-path="url(#n)"><g clip-path="url(#o)"><g clip-path="url(#p)"><path fill="#434A54" d="M 49.585938 39.5 C 48.847656 38.257812 48.046875 37.046875 47.179688 35.871094 C 46.210938 34.546875 45.175781 33.289062 44.082031 32.097656 C 42.511719 33.667969 40.234375 35.886719 37.296875 38.589844 C 31.71875 43.71875 22.546875 51.683594 10.519531 60.519531 C -1.507812 69.355469 -11.851562 75.722656 -18.414062 79.511719 C -21.871094 81.507812 -24.667969 83.015625 -26.636719 84.042969 C -25.828125 85.445312 -24.933594 86.808594 -23.964844 88.132812 C -23.097656 89.308594 -22.183594 90.433594 -21.21875 91.511719 C -14.8125 88.140625 -0.953125 80.355469 15.960938 67.929688 C 32.878906 55.5 44.453125 44.605469 49.585938 39.5 Z M 49.585938 39.5"/></g></g></g></g><g clip-path="url(#q)"><g clip-path="url(#r)"><g clip-path="url(#s)"><g clip-path="url(#t)"><path fill="#E6E9ED" d="M 20.109375 58.039062 C 23.117188 62.132812 22.234375 67.886719 18.140625 70.894531 C 14.046875 73.898438 8.292969 73.019531 5.285156 68.925781 C 2.28125 64.832031 3.160156 59.078125 7.253906 56.074219 C 11.347656 53.066406 17.101562 53.945312 20.109375 58.039062 Z M 20.109375 58.039062"/></g></g></g></g><g clip-path="url(#u)"><g clip-path="url(#v)"><g clip-path="url(#w)"><g clip-path="url(#x)"><path fill="#434A54" d="M 2.898438 50.144531 C -4.457031 55.546875 -6.046875 65.925781 -0.640625 73.28125 C 4.761719 80.636719 15.140625 82.222656 22.496094 76.820312 C 29.851562 71.417969 31.4375 61.039062 26.035156 53.683594 C 20.632812 46.328125 10.253906 44.738281 2.898438 50.144531 Z M 17.054688 69.414062 C 13.785156 71.8125 9.167969 71.105469 6.769531 67.835938 C 4.367188 64.570312 5.074219 59.957031 8.34375 57.554688 C 11.613281 55.152344 16.222656 55.859375 18.625 59.128906 C 21.023438 62.398438 20.324219 67.011719 17.054688 69.414062 Z M 17.054688 69.414062"/></g></g></g></g><g clip-path="url(#y)"><g clip-path="url(#z)"><g clip-path="url(#A)"><g clip-path="url(#B)"><path fill="#FFF" d="M 34.214844 24.078125 C 29.308594 21.160156 23.953125 19.238281 18.285156 18.371094 C 12.621094 17.503906 6.929688 17.734375 1.378906 19.054688 C -4.367188 20.417969 -9.71875 22.902344 -14.523438 26.429688 C -15.019531 26.792969 -15.503906 27.167969 -15.980469 27.546875 C -11.574219 24.578125 -6.742188 22.457031 -1.585938 21.230469 C 3.96875 19.910156 9.65625 19.679688 15.320312 20.546875 C 20.984375 21.414062 26.347656 23.335938 31.25 26.253906 C 36.328125 29.277344 40.6875 33.246094 44.214844 38.050781 C 47.742188 42.851562 50.226562 48.199219 51.59375 53.949219 C 52.910156 59.5 53.140625 65.191406 52.273438 70.855469 C 51.410156 76.519531 49.488281 81.878906 46.566406 86.78125 C 43.855469 91.335938 40.386719 95.316406 36.234375 98.632812 C 36.742188 98.289062 37.242188 97.9375 37.738281 97.574219 C 42.542969 94.046875 46.507812 89.679688 49.53125 84.605469 C 52.449219 79.703125 54.371094 74.34375 55.238281 68.675781 C 56.105469 63.011719 55.875 57.320312 54.554688 51.773438 C 53.1875 46.023438 50.707031 40.671875 47.179688 35.871094 C 43.652344 31.070312 39.289062 27.101562 34.214844 24.078125 Z M 34.214844 24.078125" fill-opacity=".2"/></g></g></g></g><g clip-path="url(#C)"><g clip-path="url(#D)"><g clip-path="url(#E)"><g clip-path="url(#F)"><path d="M -10.996094 99.925781 C -6.09375 102.84375 -0.734375 104.765625 4.929688 105.628906 C 10.597656 106.5 16.285156 106.269531 21.839844 104.949219 C 27.585938 103.578125 32.9375 101.101562 37.738281 97.574219 C 38.234375 97.207031 38.722656 96.835938 39.199219 96.453125 C 34.792969 99.421875 29.957031 101.542969 24.800781 102.769531 C 19.25 104.089844 13.5625 104.320312 7.894531 103.453125 C 2.230469 102.585938 -3.128906 100.664062 -8.03125 97.746094 C -13.109375 94.726562 -17.472656 90.757812 -21 85.953125 C -24.527344 81.152344 -27.007812 75.800781 -28.375 70.054688 C -29.695312 64.5 -29.925781 58.8125 -29.058594 53.148438 C -28.191406 47.480469 -26.269531 42.121094 -23.351562 37.21875 C -20.636719 32.664062 -17.167969 28.6875 -13.015625 25.371094 C -13.523438 25.710938 -14.027344 26.066406 -14.523438 26.429688 C -19.324219 29.957031 -23.289062 34.320312 -26.3125 39.398438 C -29.234375 44.300781 -31.15625 49.660156 -32.023438 55.324219 C -32.886719 60.988281 -32.660156 66.679688 -31.339844 72.230469 C -29.972656 77.980469 -27.492188 83.328125 -23.964844 88.132812 C -20.4375 92.933594 -16.070312 96.902344 -10.996094 99.925781 Z M -10.996094 99.925781" fill-opacity=".098"/></g></g></g></g></g></g></g></g></svg>